PathFileType	4	(X/Y/Z)	C:\Users\Basilio\Documents\Thesis Gigler\squatting_fais\c3dfiles\047\SLS_pre_back1\markers_experimental.trc
DataRate	CameraRate	NumFrames	NumMarkers	Units	OrigDataRate	OrigDataStartFrame	OrigNumFrames
200.000000	200.000000	4	60	mm	200.000000	1102	1260
Frame#	Time	FHD			LBHD			RBHD			C7			T10			CLAV			LSHO			LUUPA			LMUPA			LDUPA			LLEP			LMEP			LRAD			LUL			LRFIN			RSHO			RUPA1			RMUPA			RDUPA			RLEP			RMEP			RUL			RUFIN			LASI			RASI			USACR			LSACR			RSACR			LTHI1			LTHI2			LTHI3			LTHI4			LLFC			LMFC			LTIB1			LTIB2			LTIB3			LTIB4			LLMAL			LMMAL			LMT1			LMT2			LMT5			RTHI			RTHI2			RTHI3			RTHI4			RLFC			RMFC			RTIB1			RTIB2			RTIB3			RTIB4			RLMAL			RHEE			RMT1			RMT2			RMT5			RMMAL			*59			
		X1	Y1	Z1	X2	Y2	Z2	X3	Y3	Z3	X4	Y4	Z4	X5	Y5	Z5	X6	Y6	Z6	X7	Y7	Z7	X8	Y8	Z8	X9	Y9	Z9	X10	Y10	Z10	X11	Y11	Z11	X12	Y12	Z12	X13	Y13	Z13	X14	Y14	Z14	X15	Y15	Z15	X16	Y16	Z16	X17	Y17	Z17	X18	Y18	Z18	X19	Y19	Z19	X20	Y20	Z20	X21	Y21	Z21	X22	Y22	Z22	X23	Y23	Z23	X24	Y24	Z24	X25	Y25	Z25	X26	Y26	Z26	X27	Y27	Z27	X28	Y28	Z28	X29	Y29	Z29	X30	Y30	Z30	X31	Y31	Z31	X32	Y32	Z32	X33	Y33	Z33	X34	Y34	Z34	X35	Y35	Z35	X36	Y36	Z36	X37	Y37	Z37	X38	Y38	Z38	X39	Y39	Z39	X40	Y40	Z40	X41	Y41	Z41	X42	Y42	Z42	X43	Y43	Z43	X44	Y44	Z44	X45	Y45	Z45	X46	Y46	Z46	X47	Y47	Z47	X48	Y48	Z48	X49	Y49	Z49	X50	Y50	Z50	X51	Y51	Z51	X52	Y52	Z52	X53	Y53	Z53	X54	Y54	Z54	X55	Y55	Z55	X56	Y56	Z56	X57	Y57	Z57	X58	Y58	Z58	X59	Y59	Z59	X60	Y60	Z60	

1103	5.51	-188.2741241455078	1756.45458984375	-1100.250610351563	-359.7333984375001	1696.603515625	-1126.54052734375	-339.6422424316407	1706.8759765625	-979.189147949219	-364.1690063476563	1522.3388671875	-1052.854370117188	-367.8346252441407	1212.654541015625	-1034.6669921875	-211.6331939697266	1474.120849609375	-1078.841064453125	-285.8388977050782	1486.1826171875	-1235.631713867188	-214.8517150878907	1327.202880859375	-1322.9716796875	-172.9457092285157	1352.258666992188	-1319.957153320313	-153.0399627685547	1295.942626953125	-1329.402221679688	-80.76795959472658	1282.524291992188	-1330.367065429688	-97.84075164794925	1236.002197265625	-1253.029052734375	79.5923538208008	1400.193481445313	-1169.953735351563	121.2108764648438	1335.612426757813	-1161.499877929688	167.222885131836	1417.676513671875	-1163.795776367188	-247.7206726074219	1501.29736328125	-915.0464477539065	-144.1842498779297	1363.484619140625	-821.385925292969	-106.3986282348633	1387.507690429688	-838.2716064453127	-79.80227661132814	1335.678100585938	-823.3123779296877	-6.005149841308596	1327.205322265625	-839.8707275390627	-31.01892662048341	1259.066528320313	-892.136169433594	162.8449249267578	1366.107177734375	-1040.006958007813	131.5122680664063	1442.18994140625	-1084.3671875	-193.3376617431641	984.2526855468752	-1124.383178710938	-189.0504913330078	1010.665100097656	-894.3709716796877	-373.6808166503907	1078.05126953125	-1019.048706054688	-379.1118774414063	1044.007934570313	-1043.691772460938	-375.7860412597657	1050.333740234375	-985.8067016601565	-284.5061035156251	829.6791992187502	-1183.900512695313	-252.3324584960938	751.6943359375001	-1177.990356445313	-204.0638275146485	754.4454956054689	-1166.928833007813	-283.1928710937501	699.4205932617189	-1170.188110351563	-314.3671875000001	529.7836914062501	-1125.783203125	-280.1464538574219	524.8146362304689	-1007.721252441406	-287.4403991699219	346.1056518554688	-1027.53125	-300.2615966796876	298.3538513183594	-1099.4150390625	-282.2514343261719	295.7582397460938	-1054.799682617188	-298.2917480468751	221.0960845947266	-1021.634155273438	-353.2709045410157	124.2608489990235	-1060.814453125	-328.3567504882813	141.4231719970703	-976.1838989257815	-210.1790771484376	65.23236083984376	-992.7923583984377	-209.1626892089844	61.02187728881837	-1037.951049804688	-259.4093322753907	49.05166244506837	-1081.265747070313	-258.0707092285157	841.5452880859377	-781.7925415039065	-210.6566314697266	796.7380981445315	-767.4740600585939	-179.6802673339844	800.9924316406252	-776.2915649414065	-222.5405273437501	713.9144897460939	-755.7887573242189	-198.6879272460938	582.8239746093751	-754.8716430664064	-174.1995086669922	542.6514282226564	-876.5103759765627	-282.9429321289063	489.964813232422	-764.9432373046876	-384.5380859375001	530.4000854492189	-750.5026245117189	-368.0243225097657	486.615447998047	-750.3548583984376	-406.4041137695314	453.0729064941407	-783.2153930664065	-572.8191528320314	469.6402282714845	-780.4453125000002	-592.2268676757814	508.2433471679689	-850.1411132812502	-601.6101684570314	301.5465087890626	-825.728454589844	-610.0468139648439	304.6753234863282	-782.095153808594	-652.5296630859376	359.6206359863282	-749.1335449218751	nan	nan	nan	nan	nan	nan	
1104	5.515	-188.6067657470703	1756.529052734375	-1100.444946289063	-359.7941284179688	1696.270629882813	-1126.716430664063	-340.0014038085938	1706.85205078125	-979.2913818359377	-364.4470214843751	1522.271728515625	-1052.873413085938	-368.1373291015626	1212.755249023438	-1034.441650390625	-212.1459655761719	1474.223510742188	-1078.86767578125	-286.1643676757813	1486.126342773438	-1235.676879882813	-214.9827728271485	1327.13427734375	-1323.124633789063	-173.2910766601563	1352.209228515625	-1319.958618164063	-153.2024383544922	1295.905639648438	-1329.441284179688	-81.0159149169922	1282.554321289063	-1330.4716796875	-98.01512145996097	1236.02783203125	-1252.979614257813	79.36425781250001	1400.27880859375	-1170.1171875	120.7945404052735	1335.731567382813	-1161.56884765625	166.995849609375	1417.917602539063	-1164.013061523438	-247.7620239257813	1501.284057617188	-915.1645507812502	-144.1433563232422	1363.618286132813	-821.472106933594	-106.3946762084961	1387.62109375	-838.436706542969	-79.80999755859376	1335.720703125	-823.2871093750002	-6.029375076293947	1327.275024414063	-840.0144042968752	-31.15892601013184	1259.22412109375	-892.2490844726565	162.5832977294922	1366.401123046875	-1040.403442382813	131.4456787109375	1442.314331054688	-1084.50146484375	-193.504867553711	984.2701416015627	-1124.421752929688	-188.8857879638672	1010.712463378906	-894.4763183593752	-373.7825317382813	1078.161499023438	-1018.736022949219	-379.0745849609376	1044.075561523438	-1043.504638671875	-375.8046264648438	1050.324584960938	-985.602233886719	-284.7073364257813	829.7849121093752	-1183.8388671875	-252.7319793701172	751.7834472656251	-1177.968627929688	-204.4897003173829	754.5933227539064	-1167.087280273438	-283.6094970703126	699.5819702148439	-1170.078002929688	-314.7813720703126	529.9320068359376	-1125.725341796875	-276.9066467285157	527.3227539062501	-1007.753051757813	-287.6368103027344	346.1549987792969	-1027.598510742188	-300.4769897460938	298.3330383300782	-1099.461303710938	-282.3618164062501	295.9456787109376	-1054.988525390625	-298.4446105957032	221.0723571777344	-1021.805297851563	-353.2814331054688	124.2460861206055	-1060.907836914063	-328.3285827636719	141.4601745605469	-976.270202636719	-210.1950225830079	65.25091552734376	-992.785827636719	-209.0652008056641	61.02231597900392	-1038.126708984375	-259.4216308593751	49.07333374023439	-1081.337524414063	-257.9458618164063	841.472595214844	-781.902770996094	-210.3835601806641	796.5300292968752	-767.6956787109376	-179.6119384765625	800.915710449219	-776.4729003906252	-222.5257568359376	713.8231201171876	-755.9464721679689	-198.6042785644532	582.3483886718751	-754.8488159179689	-174.2919921875	542.4782714843751	-876.7556762695315	-282.9689331054688	489.8935546875001	-764.9638671875001	-384.4846191406251	530.3809814453126	-750.4611816406251	-368.0034790039063	486.5254821777345	-750.3020629882814	-406.3850402832032	453.0596618652345	-783.2171020507815	-572.8538818359376	469.7405395507814	-780.1350097656252	-592.3787231445314	508.2760314941407	-849.640319824219	-601.6360473632814	301.7218017578126	-825.6613769531252	-610.0789184570314	304.6930236816407	-781.8414306640627	-652.5139770507814	359.7036132812501	-748.7526245117189	nan	nan	nan	nan	nan	nan	
1105	5.52	-188.8287048339844	1756.48193359375	-1100.548217773438	-360.0464477539063	1696.2412109375	-1126.856079101563	-339.9395446777344	1707.00390625	-979.714294433594	-364.7023925781251	1522.273071289063	-1052.833862304688	-368.8575134277344	1212.468505859375	-1034.23974609375	-212.3371582031251	1474.249755859375	-1078.85400390625	-287.0367126464844	1485.853881835938	-1235.281616210938	-215.2914276123047	1327.120483398438	-1323.061645507813	-173.6461639404297	1352.118408203125	-1319.971923828125	-153.5090789794922	1295.834716796875	-1329.45263671875	-81.18984985351564	1282.555541992188	-1330.571899414063	-98.35771942138675	1236.273071289063	-1253.338134765625	79.91774749755861	1400.469848632813	-1172.281372070313	120.7186126708985	1335.857666015625	-1161.76123046875	166.8369293212891	1418.0859375	-1164.257080078125	-248.0266265869141	1501.494750976563	-915.2154541015627	-144.4035797119141	1363.75830078125	-821.5422363281252	-106.4320144653321	1387.720458984375	-838.4707031250002	-79.79684448242189	1335.815551757813	-823.4150390625002	-6.066491127014162	1327.35791015625	-840.150817871094	-31.28256416320801	1259.255615234375	-892.3259277343752	162.3782196044922	1366.380859375	-1040.460815429688	131.3432006835938	1442.413208007813	-1084.704223632813	-193.7312927246094	984.2746582031252	-1124.327514648438	-188.8792114257813	1010.707397460938	-894.4208984375002	-373.8464965820313	1078.260986328125	-1018.473571777344	-379.0460815429688	1044.16259765625	-1043.302734375	-375.8454589843751	1050.42724609375	-985.3710937500002	-284.7821960449219	830.0881958007815	-1183.83154296875	-253.1894683837891	751.8567504882814	-1177.962524414063	-204.9425201416016	754.6981201171876	-1167.260009765625	-284.1463012695313	699.8128662109376	-1169.988159179688	-315.2507934570313	530.0713500976564	-1125.626586914063	-277.0372314453126	527.3915405273439	-1007.709899902344	-287.8177185058594	346.2809448242188	-1027.73876953125	-300.8615417480469	298.2770996093751	-1099.481201171875	-282.4946594238282	296.0499877929688	-1055.063110351563	-298.5532836914063	221.1338653564454	-1021.946105957031	-353.3449707031251	124.2713165283203	-1060.932373046875	-328.3438415527344	141.5091705322266	-976.3035278320315	-210.1263580322266	65.28211975097658	-992.9751586914065	-208.9100799560547	61.83559417724611	-1037.90966796875	-259.4199829101563	49.05226898193361	-1081.3427734375	-257.7886047363282	841.4301757812502	-781.9245605468752	-210.3011169433594	796.4502563476565	-767.6466674804689	-179.1851043701172	800.8077392578127	-776.8253173828127	-222.3541870117188	713.7239379882814	-756.0082397460939	-198.5495910644532	582.2397460937501	-755.0251464843751	-174.4223175048828	542.4270019531251	-876.951110839844	-282.9354858398438	489.8775634765626	-764.8231811523439	-384.4468994140626	530.3240356445314	-750.4541625976564	-367.9720458984376	486.5019531250001	-750.2702636718751	-406.3411254882814	453.0372619628907	-783.0253906250002	-572.7936401367189	470.0867004394532	-780.1466064453127	-592.4663085937501	508.500701904297	-849.5090332031252	-601.6207885742189	301.8085632324219	-825.5183715820315	-610.0636596679689	304.7645568847657	-781.5325317382815	-652.4708251953126	359.7987060546876	-748.4828491210939	nan	nan	nan	nan	nan	nan	
1106	5.525	-189.0070037841797	1756.525024414063	-1100.817993164063	-360.2702941894532	1696.239501953125	-1126.88916015625	-340.0286560058594	1707.05419921875	-979.920349121094	-364.9416503906251	1522.331298828125	-1052.811279296875	-368.8540344238282	1212.383056640625	-1034.07275390625	-212.4321746826172	1474.266967773438	-1078.981689453125	-287.2751770019532	1485.74853515625	-1235.305541992188	-215.4999237060547	1326.979248046875	-1323.17431640625	-173.9669647216797	1352.127563476563	-1319.914306640625	-153.7105102539063	1295.828125	-1329.410034179688	-81.41453552246095	1282.490356445313	-1330.62109375	-98.54360961914065	1236.26318359375	-1253.324829101563	79.75119018554689	1400.579956054688	-1172.4404296875	120.4594192504883	1335.681640625	-1161.913208007813	166.5130920410157	1418.249389648438	-1164.40869140625	-248.1411285400391	1501.59716796875	-915.2354125976565	-144.4277038574219	1363.900756835938	-821.5584106445315	-106.5706787109375	1387.75927734375	-838.397155761719	-79.77126312255861	1336.009887695313	-823.4754028320315	-5.948790550231934	1327.5498046875	-840.4635009765627	-31.19712066650391	1259.389892578125	-892.5124511718752	162.122543334961	1366.375122070313	-1040.461059570313	131.2295684814453	1442.514892578125	-1084.959106445313	-193.8492584228516	984.3623657226565	-1124.31787109375	-188.7334594726563	1010.779541015625	-894.405212402344	-373.8528747558594	1078.208984375	-1018.309448242188	-379.0800781250001	1044.201049804688	-1043.079711914063	-375.7991027832032	1050.458862304688	-985.181091308594	-285.0410461425782	830.2006835937502	-1183.7587890625	-253.6533660888672	752.0099487304689	-1178.012084960938	-205.2224731445313	754.6986083984376	-1167.39208984375	-284.6388854980469	699.9298706054689	-1169.876098632813	-315.2125244140626	529.8663940429689	-1125.699829101563	-279.6650390625001	525.7903442382814	-1007.996459960938	-288.1767883300782	346.2722167968751	-1027.566772460938	-301.3008422851563	298.1766357421876	-1099.3505859375	-282.7880249023438	296.2206420898438	-1055.159301757813	-298.6113281250001	221.2259674072266	-1022.106750488281	-353.3886413574219	124.2301635742188	-1060.930908203125	-328.3276062011719	141.5311737060547	-976.3710937500002	-210.010971069336	65.35695648193361	-993.0588989257815	-208.9411621093751	61.87585830688478	-1037.950805664063	-259.4223327636719	49.0359573364258	-1081.389526367188	-257.6967773437501	841.4011840820315	-781.8074951171877	-210.231430053711	796.3624267578127	-767.5823364257814	-179.1213684082032	800.6907958984377	-776.8323364257815	-222.1517181396485	713.5827636718751	-756.1608886718751	-198.3469696044922	582.1687011718751	-755.3096313476564	-174.5196075439453	542.2938232421876	-877.1956176757815	-282.9618225097657	489.8179321289064	-765.0120239257814	-384.3950500488282	530.2707519531251	-750.4114379882814	-367.9279785156251	486.4195251464845	-750.2002563476564	-406.3463134765626	452.9959106445314	-783.1087646484377	-572.8963623046876	469.9611206054689	-779.616394042969	-592.5480957031251	508.6203002929689	-849.1892700195315	-602.0307006835939	301.5564270019532	-825.0606079101565	-610.1590576171876	304.8822021484376	-780.9075317382815	-652.3928833007814	359.8873596191407	-748.1333007812501	nan	nan	nan	nan	nan	nan	
